<?xml version="1.0" encoding="UTF-8" standalone="no"?>
<!DOCTYPE svg PUBLIC "-//W3C//DTD SVG 1.1//EN" "http://www.w3.org/Graphics/SVG/1.1/DTD/svg11.dtd">
<svg width="100%" height="100%" viewBox="0 0 1024 1024" version="1.1" xmlns="http://www.w3.org/2000/svg" xmlns:xlink="http://www.w3.org/1999/xlink" xml:space="preserve" xmlns:serif="http://www.serif.com/" style="fill-rule:evenodd;clip-rule:evenodd;stroke-linejoin:round;stroke-miterlimit:2;">
    <g transform="matrix(2.49977,0,0,3.975,38.5841,-647.333)">
        <g transform="matrix(0.179368,0,0,-0.1128,84.0736,321.496)">
            <path d="M139.312,0.336C139.828,0.543 140.672,0.543 141.188,0.336C141.703,0.125 141.281,-0.043 140.25,-0.043C139.219,-0.043 138.797,0.125 139.312,0.336ZM969.609,2.602C970.152,2.816 970.797,2.789 971.047,2.539C971.297,2.293 970.852,2.113 970.062,2.149C969.188,2.184 969.012,2.359 969.609,2.602ZM1013.44,2.633C1014.98,2.797 1017.52,2.797 1019.06,2.633C1020.61,2.473 1019.34,2.34 1016.25,2.34C1013.16,2.34 1011.89,2.473 1013.44,2.633ZM118.359,77.602C118.902,77.816 119.547,77.789 119.797,77.539C120.047,77.293 119.602,77.113 118.812,77.149C117.938,77.184 117.762,77.359 118.359,77.602ZM382.5,230.176C345.762,236.09 342.391,290.313 378.066,301.418C385.105,303.606 505.242,303.617 511.605,301.43C547.57,289.059 545.07,238.301 508.113,230.473C502.102,229.199 390.203,228.938 382.5,230.176ZM709.312,282.387C711.066,282.543 713.934,282.543 715.688,282.387C717.441,282.231 716.008,282.098 712.5,282.098C708.992,282.098 707.559,282.231 709.312,282.387ZM128.062,310.086C128.578,310.293 129.422,310.293 129.938,310.086C130.453,309.875 130.031,309.707 129,309.707C127.969,309.707 127.547,309.875 128.062,310.086ZM606.316,327.961C606.316,336.625 606.426,340.066 606.559,335.609C606.691,331.152 606.691,324.066 606.559,319.859C606.426,315.652 606.316,319.301 606.32,327.961L606.316,327.961ZM705.809,359.524C705.844,360.399 706.023,360.578 706.262,359.977C706.48,359.438 706.453,358.789 706.203,358.539C705.953,358.293 705.777,358.734 705.809,359.524ZM731.109,360.352C731.652,360.566 732.297,360.539 732.547,360.289C732.797,360.043 732.352,359.863 731.562,359.899C730.688,359.934 730.512,360.109 731.109,360.352ZM780.227,526.149C784.684,526.281 791.773,526.281 795.977,526.149C800.184,526.016 796.539,525.906 787.875,525.906C779.211,525.906 775.77,526.016 780.227,526.149ZM131.062,527.586C131.578,527.793 132.422,527.793 132.938,527.586C133.453,527.375 133.031,527.207 132,527.207C130.969,527.207 130.547,527.375 131.062,527.586ZM98.453,528.356C99.18,528.547 100.195,528.535 100.703,528.328C101.211,528.125 100.613,527.969 99.375,527.984C98.137,528 97.723,528.168 98.453,528.356ZM8.812,529.086C9.328,529.293 10.172,529.293 10.688,529.086C11.203,528.875 10.781,528.707 9.75,528.707C8.719,528.707 8.297,528.875 8.812,529.086ZM51.203,529.106C51.93,529.297 52.945,529.285 53.453,529.078C53.961,528.875 53.363,528.719 52.125,528.734C50.887,528.75 50.473,528.918 51.203,529.106Z" style="fill:rgb(0,102,255);fill-rule:nonzero;"/>
        </g>
        <g transform="matrix(0.179368,0,0,-0.1128,84.0736,316.238)">
            <path d="M5.438,-46.215L0,-45.958L0,481.976L35.062,481.976C105.641,481.976 173.148,479.941 185.43,477.441C235.406,467.253 273.855,425.839 289.484,365.351C300.109,324.218 286.137,271.249 254.266,231.851C251.93,228.964 249.766,226.171 249.453,225.644C249.094,225.035 250.234,223.21 252.59,220.632C332.945,132.714 302.887,-4.657 195.469,-40.422C182.484,-44.747 157.809,-46.633 112.688,-46.758L106.5,-46.774L106.5,30.476L114.188,30.484C176.445,30.539 199.758,39.41 213.414,68.23C233.836,111.343 223.809,151.074 187.402,171.296C170.871,180.472 150.531,183.804 108.562,184.206L106.5,184.226L106.5,262.749L126.188,263.191C188.309,264.582 218,286.382 217.828,330.476C217.66,372.855 197.012,395.828 153.75,401.769C140.582,403.578 90.176,403.789 78.188,402.089L75,401.636L75,-46.774L42.938,-46.626C25.305,-46.544 8.43,-46.36 5.438,-46.215ZM959.25,-43.309C959.25,-43.047 970.691,-15.961 984.676,16.882C1014.82,87.691 1054.72,182.421 1073.26,227.226L1086.56,259.351L1092.47,266.117C1150.67,332.781 1094.9,436.222 1017,406.093C943.098,377.507 959.902,249.613 1038.24,244.476C1048.38,243.812 1048.46,245.585 1037.07,217.624C1023.85,185.148 1025.16,186.382 1009.12,191.246C920.613,218.093 882.734,337.632 936.738,419.667C1013.51,536.277 1174.64,475.71 1174.03,330.476C1173.89,298.066 1185.39,332.21 1057.16,-16.399L1047.23,-43.399L1003.24,-43.59C979.047,-43.696 959.25,-43.571 959.25,-43.309ZM717,-42.547C664.082,-36.145 603.289,5.874 602.727,36.437L602.625,42.023L625.5,58.359C658.789,82.128 655.488,81.082 664.109,70.597C722.949,-0.938 817.004,47.859 808.586,145.55C803.59,203.542 773.535,233.781 718.945,235.738L705.52,236.222L706.055,274.894C706.684,320.57 703.535,314.441 725.832,313.39C810.336,309.421 869.043,247.511 877.473,153.476C887.41,42.601 808.629,-53.633 717,-42.547ZM606.75,232.128L606.75,478.976L861.75,478.976L861.75,401.726L675.082,401.726L674.855,318.14C674.668,250.828 674.434,234.363 673.652,233.578C672.887,232.816 665.504,232.55 639.715,232.367L606.75,232.128Z" style="fill:rgb(44,52,57);fill-rule:nonzero;"/>
        </g>
    </g>
</svg>
