<?xml version="1.0" encoding="UTF-8" standalone="no"?>
<!DOCTYPE svg PUBLIC "-//W3C//DTD SVG 1.1//EN" "http://www.w3.org/Graphics/SVG/1.1/DTD/svg11.dtd">
<svg width="100%" height="100%" viewBox="0 0 1080 1080" version="1.1" xmlns="http://www.w3.org/2000/svg" xmlns:xlink="http://www.w3.org/1999/xlink" xml:space="preserve" xmlns:serif="http://www.serif.com/" style="fill-rule:evenodd;clip-rule:evenodd;stroke-linejoin:round;stroke-miterlimit:2;">
    <g transform="matrix(2.40443,1.1837e-31,1.1837e-31,-2.40443,12.7574,1051.71)">
        <path d="M82.57,5.777C69.871,12.203 75.59,31.101 89.984,30.277L94.926,29.992L102.484,39.605C106.641,44.891 115.598,56.281 122.387,64.914C132.305,77.523 135.156,80.555 136.887,80.308C141.391,79.664 139.035,75.648 119.648,50.906L100.262,26.16L101.398,23.012C105.82,10.785 94.02,-0.016 82.57,5.777ZM348.73,5.851C343.348,8.84 340.844,17.68 343.641,23.82L344.742,26.238L325.141,51.781C305.172,77.801 303.941,79.859 307.652,81.035C310.383,81.902 309.395,83.019 330.797,55L349.133,31L355.086,30.484C364.527,29.668 368.539,25.766 368.539,17.402C368.539,7.262 357.641,0.906 348.73,5.851ZM116.133,17.027C106.406,22.101 109.109,36.156 120.062,37.437L124.859,38L137.602,56.469C151.645,76.82 151.105,76.293 155.566,73.988C157.305,73.086 158.836,72.496 158.969,72.676C159.539,73.43 169.504,90.473 172.465,95.754C176.098,102.23 178.672,104.25 180.492,102.055C181.863,100.402 181.004,98.531 169.809,78.75C162.059,65.055 161.41,64.48 156.57,66.984L153.699,68.469L141.871,51.312C135.363,41.879 130.23,33.672 130.469,33.078C134.926,21.824 126.031,11.867 116.133,17.027ZM304.648,27.164C298.422,30.328 295.93,40.547 300.023,46.144C301.133,47.664 300.258,49.406 293.336,59.445C286.949,68.707 275.777,85.074 269.047,95.027C267.805,96.863 269.57,100 271.84,100C273.191,100 297.836,65.402 304.07,54.75L305.973,51.5L310.789,51.5C318.789,51.5 323.609,46.629 323.723,38.43C323.852,29.035 313.266,22.781 304.648,27.164ZM149.75,28.609C139.121,31.738 141.406,50.5 152.418,50.5C154.52,50.5 155.945,51.215 156.922,52.75C158.891,55.848 173.789,83.383 178.293,92.25C181.266,98.098 182.426,99.5 184.289,99.5C188.203,99.5 187.918,96.902 183.004,87.777C180.406,82.949 174.918,72.699 170.809,65C166.699,57.301 162.949,50.523 162.473,49.937C161.957,49.305 162.469,47.129 163.746,44.551L165.883,40.226L164.461,36.203C162.16,29.691 156.32,26.676 149.75,28.609ZM272.797,38.527C267.258,40.754 265.156,48.719 268.609,54.383L270.672,57.766L263.051,75.73C255.125,94.422 254.598,96.789 258.262,97.312C260.711,97.664 259.852,99.289 270.09,75.004L276.414,60.004L279.227,59.426C286.059,58.019 288.539,55.109 288.539,48.5C288.539,40.008 281,35.23 272.797,38.527ZM346.703,43.016C343.402,45.793 341.691,52.043 343.371,55.18C344.188,56.711 341.98,59.723 329.941,73.508C312.883,93.031 312.867,93.058 316.352,96.769L318.953,99.539L311.871,106.769C293.055,125.98 291.637,127.898 294.785,129.883C296.277,130.824 298.711,128.808 311.535,116.004C328.074,99.492 327.609,100.226 323.906,96.359L321.27,93.609L323.656,90.801C324.965,89.254 331.102,82.082 337.285,74.859L348.531,61.73L353.668,61.808C358.234,61.879 359.125,61.531 361.672,58.676C370.906,48.344 357.293,34.105 346.703,43.016ZM172.465,46.422C166.691,52.195 170.09,65.5 177.34,65.5C180.207,65.5 180.941,66.836 185.012,79.5C194.242,108.223 195.594,111.5 198.191,111.5C202.113,111.5 201.867,110.016 194.172,87L186.812,65L189.176,62.172C195.566,54.531 190.461,43.5 180.539,43.5C176.176,43.5 174.938,43.949 172.465,46.422ZM90.539,54.699C78.859,62.625 87.07,80.43 101.312,78.043L105.039,77.418L123.539,98.582C133.715,110.219 142.328,120.199 142.684,120.754C143.719,122.394 148.539,120.687 148.539,118.684C148.539,117.703 139.879,107.058 129.289,95.023C117.477,81.598 110.195,72.539 110.445,71.574C114.086,57.48 101.793,47.058 90.539,54.699ZM237.941,63.898C233.246,68.594 233.039,75.723 237.457,80.75L240.371,84.07L237,95.035C234.477,103.254 233.621,105.117 233.586,102.473C233.449,91.941 216.109,87.828 213.012,97.59C211.922,101.027 210.906,99.609 209.676,92.934L208.465,86.371L211.504,83.535C218.949,76.578 213.555,64.5 203.004,64.5C191.824,64.5 188.555,81.844 199.023,85.629C201.73,86.609 202.652,87.59 203.086,89.949C203.395,91.625 204.438,97.5 205.398,103L207.148,113L209.418,113.328C211.027,113.562 211.844,113.058 212.223,111.598L212.762,109.539L215.652,112.266L218.539,114.992L218.477,167L214.387,154.539C211.656,146.23 210.676,141.953 211.438,141.699C220.98,138.519 214.492,121.492 203.742,121.504C189.855,121.519 187.207,140.719 200.723,143.379L204.039,144.027L207.738,155.016C214.223,174.281 215.34,175.406 181.66,128.742C173.223,117.047 165.973,107.266 165.547,107.004C165.125,106.742 165.484,104.562 166.348,102.156L167.922,97.785L166.172,93.203C160.695,78.863 138.805,84.523 140.848,99.75C141.809,106.91 148.625,111.777 156.949,111.246L160.84,111L183.227,141.871C195.535,158.848 204.941,172.484 204.125,172.172C203.305,171.855 199.129,169.039 194.84,165.91L187.039,160.219L187.039,155.777C187.039,145.984 175.035,141.902 168.324,149.418C161.453,157.105 167.352,167.016 178.398,166.344L184.039,166L192.254,172C201.039,178.414 200.945,178.312 199.656,180.344C198.953,181.457 197.016,181.324 188.531,179.594C182.883,178.441 178.105,177.5 177.914,177.5C177.723,177.5 176.941,176 176.176,174.168C173.133,166.891 163.973,164.012 158.23,168.527C154.367,171.566 147.02,169.652 146.168,165.383C143.492,152.008 123.539,155.238 123.539,169.051C123.539,177.699 135.863,182.969 142.984,177.363C146.793,174.367 153.539,176.144 153.539,180.141C153.539,188.344 166.895,192.629 173.754,186.625L177.039,183.754L197.039,187.973L191.703,188.637C188.766,189.004 178.484,189.871 168.859,190.57L151.355,191.836L148.895,188.691C141.664,179.453 127.539,184.113 127.539,195.734C127.539,208.519 144.5,212.531 149.957,201.035C151.277,198.25 152.219,197.5 154.387,197.5C156.949,197.5 176.238,196.172 190.039,195.047C194.945,194.648 189.465,196.723 160.039,206.398C140.238,212.91 123.254,218.57 122.289,218.976C121.223,219.426 120.539,219.273 120.539,218.594C120.539,216.371 114.141,213.508 109.172,213.504C99.145,213.496 93.188,224.488 98.5,233.203C104.637,243.266 120.613,240.355 122.434,228.836L123.039,225L132.539,221.875C168.762,209.961 198.152,200.769 198.785,201.156C199.195,201.406 194.961,205.012 189.379,209.168L179.227,216.723L175.34,215.558C164.523,212.316 155.961,222.555 160.734,233.027C165.488,243.457 182.539,238.578 182.539,226.789C182.539,222.586 182.938,221.582 185.289,219.848C206.781,204.008 206.461,203.75 193.262,226.184C187.496,235.984 179.395,249.851 175.258,257L167.734,270L163.586,270.574C154.043,271.894 150.273,283.301 157.305,289.582C166.148,297.484 178.398,289.406 175.551,277.555L174.379,272.656L186.582,251.828C193.297,240.371 201.242,226.801 204.246,221.664C211.883,208.605 211.949,207.789 202.453,243.75C201.688,246.652 200.961,247.5 199.25,247.504C192.312,247.516 187.121,255.668 189.488,262.84C193.922,276.277 212.539,273.176 212.539,259C212.539,255.051 210.121,249.5 208.398,249.5C207.098,249.5 207.203,248.957 211.969,231C214.012,223.301 216.102,216.574 216.609,216.051C217.184,215.465 217.539,229.941 217.539,253.754L217.539,292.406L213.965,294.101C201.805,299.871 205.824,318.5 219.223,318.5C232.855,318.5 238.121,299.82 226.043,294.32L223.539,293.18L223.539,254.258C223.539,210.992 223.688,210.223 229.121,225.441L232.465,234.801L230.004,237.726C224.875,243.82 227.863,254.32 235.363,256.566C250.656,261.148 257.09,239.156 241.949,234.055L238.039,232.738L234.941,223.371C230.117,208.769 230.656,209.215 250.344,236.098C268.145,260.398 266.949,258.355 265.496,262L264.301,265L263.336,262.25C262.27,259.207 257.93,258.324 256.922,260.945C256.617,261.742 259.031,269.055 262.285,277.195L268.199,292L265.871,294.828C259.379,302.703 265.699,314.5 276.414,314.5C290.598,314.5 292.344,292.461 278.309,290.562L274.145,290L270.414,281.219L266.68,272.437L269.688,274.969C277.02,281.141 287.941,275.773 287.941,266C287.941,259.328 283.023,254.5 276.223,254.5L272.715,254.5L264.91,243.75C260.613,237.836 252.91,227.43 247.785,220.621C236.344,205.418 236.164,205.539 252.559,217.324L266.039,227.016L266.621,232.508C267.801,243.644 277.801,248.805 285.883,242.445C296.613,234.004 283.984,213.871 272.996,221.906L271.074,223.316L265.055,218.594C261.746,215.996 255.301,211.312 250.73,208.184C246.16,205.058 242.727,202.5 243.098,202.5C243.746,202.5 259.668,208.113 298.039,221.879L316.039,228.332L316.629,232.578C318.398,245.351 337.461,246.363 341.57,233.902C345.75,221.238 331.027,211.328 320.812,219.922L317.93,222.348L284.984,210.555C266.867,204.07 250.238,197.918 248.039,196.883L244.039,195L256.027,194.715C265.055,194.504 268.121,194.746 268.441,195.707C271.207,204.004 286.738,204.941 290.344,197.027C296.77,182.93 276.133,171.785 269.031,185.516L267.488,188.5L256.266,188.469C242.25,188.43 241.863,188.656 275.055,177.516L301.637,168.59L304.84,170.539C313.875,176.051 324.996,169.066 323.117,159.058C320.859,147.027 303.09,146.691 300.645,158.633L299.988,161.848L273.605,170.684C259.098,175.543 247.039,179.332 246.812,179.105C245.645,177.937 273.082,159.719 274.703,160.586C275.641,161.09 278.219,161.5 280.426,161.5C295.949,161.5 297.098,140.219 281.652,138.738L276.59,138.25L273.066,141.773C270.004,144.836 269.539,145.941 269.531,150.148L269.523,155L263.383,158.957C260.008,161.133 253.449,165.742 248.812,169.199L240.383,175.484L244.168,170.242C249.227,163.238 261.41,147.348 275.988,128.746L287.934,113.5L292.785,113.5C305.508,113.5 311.578,100.969 303.254,91.887C293.16,80.867 275.07,93.215 281.844,106.5L283.117,109L271.578,123.836C265.234,131.996 254.328,146.058 247.352,155.09C232.828,173.875 232.305,174.074 237.75,158.75L241.746,147.5L244.219,147.5C254.656,147.5 255.344,128.867 244.98,126.922C235.461,125.137 229.09,134.848 234.152,143.422L235.766,146.152L231.871,156.504C225.859,172.473 225.539,171.695 225.539,141.062L225.539,114.457L228.109,113.285C229.52,112.644 231.352,110.965 232.172,109.558C232.996,108.152 233.34,107.898 232.938,109C231.238,113.66 231.891,117 234.508,117C236.52,117 237.199,116.262 238.18,113L239.387,109L239.465,113C239.695,124.414 251.871,130.141 260.492,122.887C269.82,115.039 264.527,100.5 252.344,100.5L247.305,100.5L243.32,104.484C241.133,106.672 239.574,107.851 239.863,107.098C240.152,106.348 241.621,101.137 243.133,95.519C244.93,88.828 246.422,85.137 247.457,84.808C255.637,82.238 258.531,78.797 258.535,71.648C258.543,65.016 253.684,60.5 246.539,60.5C241.961,60.5 240.934,60.906 237.941,63.898ZM228.617,97.422C233.234,102.039 232.309,108.016 226.512,111.016L223.539,112.551L223.539,169.422L227.496,170.488C231.523,171.574 236.41,175.594 240.266,181L242.406,184L272.082,174L301.754,164L303.109,160C305.801,152.055 313.148,149.867 317.949,155.578C325.223,164.219 314.117,174.461 305.137,167.398L302.461,165.293L282.75,172.016C271.91,175.711 258.426,180.32 252.789,182.254L242.539,185.773L242.539,189.894C242.539,195.457 241.105,200.074 237.977,204.594C236.297,207.016 235.664,208.836 236.203,209.695C236.664,210.426 242.926,218.894 250.117,228.512C257.312,238.129 264.914,248.586 267.012,251.75L270.824,257.5L275.258,257.5C283.898,257.5 288.168,265.226 282.949,271.422C279.285,275.777 273.793,275.777 270.129,271.422C267.52,268.324 266.652,263.168 268.539,262C271.41,260.226 269.809,257.652 245.543,225C233.516,208.812 233.609,208.894 229.5,211.019C225.246,213.219 216.82,213.215 212.551,211.004L209.16,209.25L207.543,211.25C201.074,219.234 171.363,272.726 171.996,275.246C174.508,285.305 172.352,289.5 164.656,289.5C153.422,289.5 154.141,274.605 165.465,272.711L169.891,271.969L175.332,262.484C178.324,257.269 186.57,243.055 193.656,230.898C207.418,207.289 207.355,207.422 204.965,205.437C193.656,196.051 200.531,174.441 216.156,170.258L220.273,169.156L221,141.738L221.73,114.316L218.199,111.082C213.816,107.066 212.863,103.707 214.957,99.656C218.039,93.699 223.93,92.734 228.617,97.422ZM342.992,78.906C338.512,80.855 336.285,84.832 336.707,90.125L337.059,94.543L315.613,115.769C293.793,137.371 293.215,138.058 294.852,140.25C296.875,142.961 299.699,140.742 320.488,120.098L342.039,98.695L344.539,99.668C348.43,101.187 354.246,99.027 356.582,95.195C362.617,85.301 353.473,74.34 342.992,78.906ZM91.652,91.058C82.715,98.578 90.289,112.848 101.609,109.828L105.621,108.754L118.832,118.793C126.098,124.316 133.312,129.883 134.867,131.164C138.223,133.937 141.066,134.172 142.008,131.75C142.832,129.633 140.199,127.219 122.012,113.426L108.984,103.547L109.367,99.527C110.223,90.562 98.754,85.082 91.652,91.058ZM332.039,111.601C328.273,113.781 326.586,116.859 326.562,121.586L326.539,126.172L316.539,133.851C306.605,141.484 305.441,143 307.738,145.301C309.559,147.121 309.73,147.031 319.949,139.043L329.488,131.59L334.48,132.18C343.379,133.234 348.539,129.152 348.539,121.066C348.539,113.73 338.406,107.918 332.039,111.601ZM107.422,125.004C93.375,132.637 106.191,153.418 120.414,146.066L123.188,144.633L135.613,152.121C142.449,156.238 148.789,160.121 149.707,160.746C150.973,161.613 151.75,161.57 152.957,160.57C154.594,159.211 155.16,155.5 153.73,155.5C153.285,155.5 152.047,154.844 150.98,154.043L149.039,152.586L152.539,153.617C165.738,157.5 174.84,137.641 163.32,130.094C149.996,121.363 135.391,139.406 146.73,150.586L149.039,152.867L146.039,150.988C144.391,149.953 139.387,146.957 134.922,144.324L126.805,139.539L126.27,134.805C125.242,125.687 115.492,120.617 107.422,125.004ZM337.758,168.058C336.531,168.918 334.852,170.934 334.023,172.535L332.516,175.449L317.277,175.723L302.039,176L301.406,181.5L305.223,181.648C308.52,181.777 308.633,181.851 306.039,182.184C296.355,183.43 291.426,193.726 296.547,202.016C300.621,208.605 311.086,209.414 316.91,203.59C323.309,197.191 320.52,185.016 312.094,182.566C309.863,181.918 312.227,181.656 320.855,181.59L332.676,181.5L335.977,185C343.523,193.004 355.539,188.058 355.539,176.949C355.539,168.953 344.418,163.394 337.758,168.058ZM83.316,171.058C73.621,176.32 78.309,192 89.57,192L94.77,192L97.902,188.387L101.039,184.773L114.328,184.297C128.297,183.801 130.965,182.961 128.895,179.723C127.922,178.199 126.227,178.043 114.305,178.367L100.816,178.73L100.152,176.086C98.773,170.598 89.352,167.781 83.316,171.058ZM95.66,194.133L73.281,198.48L69.875,195.488C58.512,185.512 43.824,200.937 54.516,211.629C60.199,217.312 71.215,214.621 73.109,207.086C73.465,205.664 73.863,204.5 73.992,204.5C74.117,204.5 84.668,202.476 97.43,200C110.191,197.523 120.871,195.5 121.156,195.5C122.438,195.5 120.875,190.156 119.539,189.984C118.715,189.875 107.969,191.742 95.66,194.133ZM369.379,191.945C367.93,193.293 366.57,194.906 366.363,195.531C366.086,196.359 360.578,196.019 346.367,194.301C324.676,191.68 324.539,191.684 324.539,195.004C324.539,197.848 324.43,197.82 347.438,200.523C365.723,202.668 366.539,202.855 366.539,204.883C366.539,211.168 379.941,213.133 384.961,207.586C393.715,197.914 378.938,183.086 369.379,191.945ZM99.039,202.953L83.039,206.18L82.738,211.277L82.441,216.371L77.738,217.887C75.156,218.719 66.602,221.242 58.73,223.488L44.422,227.578L41.406,225.039C31.141,216.402 17.355,230.547 26.289,240.547C31.703,246.605 42.746,244.715 44.195,237.476C44.824,234.32 80.078,221.5 88.137,221.5C88.359,221.5 88.539,219.258 88.539,216.519C88.539,212.176 88.828,211.469 90.789,211.008C92.027,210.715 98.641,209.351 105.488,207.976C118.242,205.414 120.117,204.445 118.434,201.305C117.27,199.125 118.59,199.012 99.039,202.953ZM325.48,206.605C323.727,209.891 324.629,210.324 353.316,220L380,229L380.691,232.484C383.34,245.824 403.527,244.75 406.082,231.133C408.371,218.918 388.66,210.523 382.703,221.176C381.863,222.676 378.93,221.887 354.895,213.676C324.285,203.223 326.949,203.863 325.48,206.605ZM140.988,230.051C134.316,233.344 132.258,243.633 137.113,249.406C144.574,258.273 158.258,254.176 159.238,242.781C160.129,232.434 150.199,225.504 140.988,230.051ZM83.539,233.277C82.715,233.543 69.129,238.207 53.348,243.637L24.652,253.508L21.977,251.027C12.559,242.301 -2.883,251.781 0.469,264.23C4.23,278.211 22.469,277.871 26.055,263.758L27.23,259.129L57.133,248.934L87.039,238.738L87.344,236.246C87.66,233.652 86.117,232.445 83.539,233.277ZM351.723,238.074C352.074,240.922 352.418,241.07 392.523,255.836L412.008,263.012L412.59,266.504C414.629,278.769 429.297,281.918 436.262,271.586C444.371,259.551 429.332,245.723 417.137,254C412.43,257.191 416.008,258.058 384.062,246C353.945,234.633 351.219,233.965 351.723,238.074ZM303.262,237.637C299.93,239.5 301.262,242.324 306.789,245.125C309.676,246.586 317.551,250.867 324.285,254.641C338.324,262.504 339.258,262.684 342.23,258.09L344.426,254.703L361.23,262.109C382.293,271.387 380.926,270.519 381.664,275.051C383.613,287.031 401.664,286.148 403.152,274C404.305,264.613 393.516,257.797 386.387,263.406L383.961,265.312L363.715,256.406C340.312,246.109 342.062,246.5 339.41,251C338.273,252.922 337.051,254.336 336.691,254.137C336.332,253.937 330.863,250.961 324.539,247.523C318.215,244.082 311.227,240.234 309.012,238.973C306.066,237.293 304.516,236.934 303.262,237.637ZM111.539,244.105C106.316,246.074 95.184,250.379 86.801,253.668L71.562,259.652L68.562,257.516C55.027,247.875 39.68,265.992 51.895,277.187C60,284.613 71.57,280.019 73.477,268.621L74.039,265.238L95.039,257.359C106.59,253.027 118.422,248.723 121.336,247.793C126.074,246.285 126.602,245.836 126.336,243.551C125.902,239.808 122.617,239.93 111.539,244.105ZM291.551,241.988C290.871,242.805 290.547,244.078 290.832,244.816C291.297,246.031 330.402,269.66 336.672,272.516C338.797,273.484 339.402,274.574 339.809,278.184C341.527,293.441 362.539,292.301 362.539,276.949C362.539,269.133 351.488,263.398 345.012,267.859L343.039,269.215L326.039,259.246C316.691,253.762 305.719,247.301 301.664,244.887C293.379,239.961 293.262,239.926 291.551,241.988ZM156.488,250.777C154.535,252.551 149.215,257.226 144.664,261.172L136.395,268.34L131.152,267.801C117.707,266.41 110.879,282.594 121.867,289.797C131.188,295.902 142.176,288.601 141.324,276.867L141.039,272.969L152.789,262.621C164.566,252.25 165.57,250.93 163.34,248.699C161.535,246.894 160.379,247.246 156.488,250.777ZM284.148,251.082C283.07,253.887 283.391,254.266 293.754,262.426L303.965,270.469L303.68,274.453C302.699,288.047 321,291.891 325.316,278.996C328.129,270.59 322.359,263.976 312.977,264.848L307.91,265.316L297.977,257.441C287.898,249.457 285.238,248.234 284.148,251.082ZM124.539,254.336C120.965,256.441 113.789,260.965 108.59,264.391C100.742,269.562 98.711,270.488 96.59,269.848C87.336,267.058 81.039,271.008 81.039,279.605C81.039,293.773 100.668,294.426 102.258,280.308L102.777,275.684L114.41,268.215C120.805,264.105 127.98,259.543 130.352,258.07C139.855,252.176 134.285,248.598 124.539,254.336ZM237.422,264.383C226.082,275.723 240.336,293.156 253.641,284.219C264.273,277.078 258.707,260.516 245.672,260.504C241.93,260.5 240.75,261.055 237.422,264.383ZM178.027,280.25C177.117,283.414 175.434,289.215 174.289,293.141L172.203,300.285L168.324,301.445C157.941,304.558 158.066,319.48 168.5,322.605C178.938,325.734 187.691,312.609 180.387,304.793L177.777,302L181.094,291C185.254,277.207 185.422,274.5 182.109,274.5C180.012,274.5 179.457,275.281 178.027,280.25ZM191.133,275.68C190.387,278.137 182.527,327.984 182.535,330.203C182.539,331.848 181.422,332.898 178.125,334.359C167.301,339.148 169.848,355.5 181.414,355.5C192.934,355.5 198.641,340.18 189.125,334.801C187.934,334.125 188.414,329.641 192.152,306.5C194.598,291.375 196.473,278.101 196.316,277C196,274.703 191.754,273.621 191.133,275.68ZM198.113,284.75C197.203,287.855 192.617,323.816 193.043,324.504C193.305,324.926 195.098,325.57 197.027,325.934L200.539,326.59L200.539,331.269C200.539,341.488 198.266,369.019 197.395,369.344C185.551,373.762 188.109,390.5 200.625,390.5C210.945,390.5 215.133,378.047 206.973,371.625L204.258,369.488L205.879,346.367C207.68,320.703 207.805,321.828 203.004,320.926C198.926,320.164 199.043,321.434 201.523,304.5C204.148,286.555 201.711,272.434 198.113,284.75ZM249.035,289.508C248.695,290.058 250.547,299.238 253.156,309.898L257.895,329.289L255.219,332.469C246.449,342.891 260.617,356.656 270.773,347.582C276.973,342.043 274.441,330.734 266.621,329.019L263.953,328.43L254.109,288.5L251.883,288.5C250.66,288.5 249.379,288.953 249.035,289.508ZM237.004,294.558C236.391,295.555 236.875,315.848 238.117,341L238.66,352L235.621,353.691C220.742,361.973 232.52,384.769 247.633,376.953C256.543,372.344 256.555,358.859 247.656,353.75L244.812,352.121L244.176,343.156C243.828,338.226 243.535,328.074 243.531,320.598C243.527,313.117 243.238,303.961 242.887,300.25L242.25,293.5L239.953,293.5C238.691,293.5 237.363,293.976 237.004,294.558ZM217.207,329.168C216.84,329.531 216.539,344.363 216.539,362.121L216.539,394.406L212.965,396.101C200.816,401.867 204.969,421.48 218.34,421.496C232.012,421.512 237.199,400.016 224.496,395.984L222.539,395.363L222.539,328.5L220.207,328.5C218.922,328.5 217.574,328.801 217.207,329.168Z" style="fill:rgb(0,102,255);fill-rule:nonzero;"/>
    </g>
</svg>
