<?xml version="1.0" encoding="UTF-8" standalone="no"?>
<!DOCTYPE svg PUBLIC "-//W3C//DTD SVG 1.1//EN" "http://www.w3.org/Graphics/SVG/1.1/DTD/svg11.dtd">
<svg width="1016" height="478" viewBox="452 721 1016 478" version="1.1" xmlns="http://www.w3.org/2000/svg" xmlns:xlink="http://www.w3.org/1999/xlink" xml:space="preserve" xmlns:serif="http://www.serif.com/" style="fill-rule:evenodd;clip-rule:evenodd;stroke-linejoin:round;stroke-miterlimit:2;">
    <rect id="Artboard1" x="0" y="0" width="1920" height="1920" style="fill:none;"/>
    <clipPath id="_clip1">
        <rect id="Artboard11" serif:id="Artboard1" x="0" y="0" width="1920" height="1920"/>
    </clipPath>
    <g clip-path="url(#_clip1)">
        <g transform="matrix(1.86047,0,0,-1.86047,-1.08749e-13,1920)">
            <path d="M0,0L0,1032L1032,1032L1032,0L0,0ZM1031.25,0.75L1031.25,1031.25L0.75,1031.25L0.75,0.75L1031.25,0.75ZM561.293,395.922C544.133,400.141 530.234,412.016 522.52,429.043C519.141,436.5 517.125,445.305 517.125,452.625L517.125,458.621L522.375,459.148C525.262,459.441 532.395,460.25 538.223,460.953C544.051,461.656 549.367,462.02 550.035,461.762C550.797,461.473 551.25,460.422 551.25,458.961C551.25,455.297 554.031,445.328 556.07,441.684C559.078,436.309 567.035,429.75 570.551,429.75C571.289,429.75 571.5,425.836 571.5,412.125L571.5,394.5L569.062,394.555C567.723,394.586 564.227,395.199 561.293,395.922ZM583.5,394.5L583.5,429.438L586.754,430.309C590.891,431.414 597.242,437.043 599.578,441.668C603.223,448.895 604.539,455.562 605.008,469.125C605.715,489.699 603.727,501.672 598.141,510.398C592.316,519.504 580.148,522.836 569.496,518.234C567.773,517.492 566.254,516.996 566.121,517.129C565.734,517.508 567.332,549.594 567.75,549.918C567.957,550.074 569.633,550.863 571.477,551.664C574.312,552.898 576.582,553.125 586.102,553.125C596.238,553.121 597.867,552.938 602.25,551.281C623.969,543.094 635.535,525.633 640.094,494.152C642.477,477.715 640.953,453.652 636.609,439.125C629.645,415.832 613.762,400.035 592.875,395.633C589.988,395.023 586.695,394.52 585.562,394.512L583.5,394.5ZM252,398.25C250.512,399.738 250.5,400.734 250.523,515.812C250.543,611.129 250.727,632.109 251.543,633.188C252.469,634.406 255.113,634.5 288.109,634.5C327.574,634.5 336.922,633.836 346.125,630.371C361.926,624.422 372.73,613.867 378.32,598.918C382.094,588.824 382.871,583.895 382.871,570C382.875,554.723 381.863,549.406 377.023,539.25C374.562,534.086 372.797,531.691 367.742,526.656C364.309,523.234 361.5,520.324 361.5,520.191C361.5,520.055 363.617,518.332 366.207,516.359C376.922,508.199 384.043,495.387 386.215,480.348C387.215,473.43 387.203,458.004 386.188,451.27C384.504,440.055 379.695,427.844 374.055,420.461C366.32,410.328 350.77,400.922 337.875,398.57C333.656,397.801 325.051,397.195 314.922,396.957L298.723,396.574L298.246,398.348C297.637,400.625 297.602,429.238 298.207,430.812C298.594,431.828 300.457,432 311.191,432C329.914,432 335.145,433.355 341.699,439.91C347.504,445.715 350.48,454.855 350.48,466.875C350.48,483.328 345.328,493.719 334.594,498.918L329.625,501.328L298.125,502.125L298.125,535.125L328.125,535.914L332.875,538.469C338.328,541.402 341.879,545.352 344.363,551.25C345.945,555.004 346.102,556.492 346.098,567.75C346.098,578.816 345.918,580.566 344.418,584.309C342.375,589.395 338.453,594.129 334.223,596.605C328.715,599.836 321.891,600.75 303.324,600.75L286.5,600.75L286.5,499.207C286.5,407.301 286.387,397.617 285.312,397.207C284.66,396.953 277.234,396.75 268.812,396.75C254.5,396.75 253.402,396.848 252,398.25ZM684.105,397.746C683.242,398.789 683.832,401.957 685.402,404.676C686.359,406.332 695.25,425.227 695.25,425.602C695.25,425.738 697.273,430.109 699.75,435.312C702.227,440.52 704.25,444.906 704.25,445.062C704.25,445.219 706.133,449.348 708.438,454.234C710.738,459.125 713.242,464.477 713.996,466.125C714.754,467.773 716.918,472.453 718.809,476.523C720.703,480.59 722.25,484.039 722.25,484.184C722.25,484.328 724.133,488.422 726.438,493.285C736.375,514.266 741.383,527.672 743.746,539.625C745.758,549.773 745.594,571.109 743.438,579.754C740.742,590.582 735.086,598.41 728.008,601.113L724.5,602.453L724.5,636.945L729.141,636.418C739.676,635.227 751.883,629.492 759.227,622.277C772.27,609.473 777.969,596.012 780.453,572.148C781.574,561.352 781.578,559.398 780.469,547.586C779.086,532.836 776.387,520.582 772.188,510C769.297,502.723 767.75,498.918 766.855,496.875C766.309,495.637 764.781,492.105 763.457,489.023C762.137,485.945 759.453,480.039 757.492,475.898C750.102,460.266 747.953,455.574 747.414,453.883C747.113,452.922 745.711,449.809 744.305,446.965C742.898,444.121 741.75,441.648 741.75,441.473C741.75,441.297 739.945,437.324 737.738,432.641C735.531,427.957 731.285,418.555 728.293,411.75C725.305,404.945 722.18,398.785 721.348,398.062C720,396.895 717.926,396.75 702.383,396.75C688.793,396.75 684.75,396.969 684.105,397.746ZM697.5,486.695C690.77,488.508 684.566,491.586 679.75,495.512C672.32,501.559 668.359,506.645 664.168,515.5C652.332,540.504 652.914,583.762 665.391,606.75C674.426,623.395 690.297,634.547 707.574,636.398L712.527,636.926L712.328,619.434L712.125,601.938L709.875,601.473C706.664,600.812 701.875,597.602 699.707,594.652C693.875,586.73 691.949,578.418 691.906,561C691.852,537.734 695.969,526.039 706.359,519.945C709.562,518.07 710.523,517.891 717.188,517.926C721.211,517.949 724.5,517.809 724.5,517.617C724.5,517.426 723.523,515.203 722.328,512.676C721.133,510.148 718.055,503.363 715.484,497.602C712.914,491.84 710.477,486.703 710.062,486.188C709.031,484.891 703.352,485.121 697.5,486.695ZM407.422,515.812L407.625,532.875L451.312,533.07L495,533.262L495,498.75L407.223,498.75L407.422,515.812ZM542.25,503.27C538.332,504.031 531.996,505.242 528.172,505.961C524.344,506.676 520.922,507.625 520.562,508.07C520.195,508.523 520.18,513.641 520.523,519.75C520.863,525.73 521.512,537.883 521.965,546.75C522.418,555.617 523.117,569.117 523.516,576.75C523.918,584.383 524.625,599.738 525.09,610.875C525.711,625.754 526.211,631.574 526.988,632.816L528.043,634.512L579.207,634.316L630.375,634.125L630.375,598.875L594.258,598.68L558.145,598.484L557.715,590.805C557.477,586.582 556.742,571.145 556.078,556.5C554.027,511.219 553.648,504.418 553.109,503.062C552.48,501.473 551.387,501.496 542.25,503.27Z" style="fill:rgb(0,102,255);fill-rule:nonzero;"/>
        </g>
        <g transform="matrix(1.86047,0,0,-1.86047,-1.08749e-13,1920)">
            <path d="M0,0L0,1032L1032,1032L1032,0L0,0ZM1031.25,0.75L1031.25,1031.25L0.75,1031.25L0.75,0.75L1031.25,0.75ZM561.293,395.922C544.133,400.141 530.234,412.016 522.52,429.043C519.141,436.5 517.125,445.305 517.125,452.625L517.125,458.621L522.375,459.148C525.262,459.441 532.395,460.25 538.223,460.953C544.051,461.656 549.367,462.02 550.035,461.762C550.797,461.473 551.25,460.422 551.25,458.961C551.25,455.297 554.031,445.328 556.07,441.684C559.078,436.309 567.035,429.75 570.551,429.75C571.289,429.75 571.5,425.836 571.5,412.125L571.5,394.5L569.062,394.555C567.723,394.586 564.227,395.199 561.293,395.922ZM583.5,394.5L583.5,429.438L586.754,430.309C590.891,431.414 597.242,437.043 599.578,441.668C603.223,448.895 604.539,455.562 605.008,469.125C605.715,489.699 603.727,501.672 598.141,510.398C592.316,519.504 580.148,522.836 569.496,518.234C567.773,517.492 566.254,516.996 566.121,517.129C565.734,517.508 567.332,549.594 567.75,549.918C567.957,550.074 569.633,550.863 571.477,551.664C574.312,552.898 576.582,553.125 586.102,553.125C596.238,553.121 597.867,552.938 602.25,551.281C623.969,543.094 635.535,525.633 640.094,494.152C642.477,477.715 640.953,453.652 636.609,439.125C629.645,415.832 613.762,400.035 592.875,395.633C589.988,395.023 586.695,394.52 585.562,394.512L583.5,394.5ZM252,398.25C250.512,399.738 250.5,400.734 250.523,515.812C250.543,611.129 250.727,632.109 251.543,633.188C252.469,634.406 255.113,634.5 288.109,634.5C327.574,634.5 336.922,633.836 346.125,630.371C361.926,624.422 372.73,613.867 378.32,598.918C382.094,588.824 382.871,583.895 382.871,570C382.875,554.723 381.863,549.406 377.023,539.25C374.562,534.086 372.797,531.691 367.742,526.656C364.309,523.234 361.5,520.324 361.5,520.191C361.5,520.055 363.617,518.332 366.207,516.359C376.922,508.199 384.043,495.387 386.215,480.348C387.215,473.43 387.203,458.004 386.188,451.27C384.504,440.055 379.695,427.844 374.055,420.461C366.32,410.328 350.77,400.922 337.875,398.57C333.656,397.801 325.051,397.195 314.922,396.957L298.723,396.574L298.246,398.348C297.637,400.625 297.602,429.238 298.207,430.812C298.594,431.828 300.457,432 311.191,432C329.914,432 335.145,433.355 341.699,439.91C347.504,445.715 350.48,454.855 350.48,466.875C350.48,483.328 345.328,493.719 334.594,498.918L329.625,501.328L298.125,502.125L298.125,535.125L328.125,535.914L332.875,538.469C338.328,541.402 341.879,545.352 344.363,551.25C345.945,555.004 346.102,556.492 346.098,567.75C346.098,578.816 345.918,580.566 344.418,584.309C342.375,589.395 338.453,594.129 334.223,596.605C328.715,599.836 321.891,600.75 303.324,600.75L286.5,600.75L286.5,499.207C286.5,407.301 286.387,397.617 285.312,397.207C284.66,396.953 277.234,396.75 268.812,396.75C254.5,396.75 253.402,396.848 252,398.25ZM684.105,397.746C683.242,398.789 683.832,401.957 685.402,404.676C686.359,406.332 695.25,425.227 695.25,425.602C695.25,425.738 697.273,430.109 699.75,435.312C702.227,440.52 704.25,444.906 704.25,445.062C704.25,445.219 706.133,449.348 708.438,454.234C710.738,459.125 713.242,464.477 713.996,466.125C714.754,467.773 716.918,472.453 718.809,476.523C720.703,480.59 722.25,484.039 722.25,484.184C722.25,484.328 724.133,488.422 726.438,493.285C736.375,514.266 741.383,527.672 743.746,539.625C745.758,549.773 745.594,571.109 743.438,579.754C740.742,590.582 735.086,598.41 728.008,601.113L724.5,602.453L724.5,636.945L729.141,636.418C739.676,635.227 751.883,629.492 759.227,622.277C772.27,609.473 777.969,596.012 780.453,572.148C781.574,561.352 781.578,559.398 780.469,547.586C779.086,532.836 776.387,520.582 772.188,510C769.297,502.723 767.75,498.918 766.855,496.875C766.309,495.637 764.781,492.105 763.457,489.023C762.137,485.945 759.453,480.039 757.492,475.898C750.102,460.266 747.953,455.574 747.414,453.883C747.113,452.922 745.711,449.809 744.305,446.965C742.898,444.121 741.75,441.648 741.75,441.473C741.75,441.297 739.945,437.324 737.738,432.641C735.531,427.957 731.285,418.555 728.293,411.75C725.305,404.945 722.18,398.785 721.348,398.062C720,396.895 717.926,396.75 702.383,396.75C688.793,396.75 684.75,396.969 684.105,397.746ZM697.5,486.695C690.77,488.508 684.566,491.586 679.75,495.512C672.32,501.559 668.359,506.645 664.168,515.5C652.332,540.504 652.914,583.762 665.391,606.75C674.426,623.395 690.297,634.547 707.574,636.398L712.527,636.926L712.328,619.434L712.125,601.938L709.875,601.473C706.664,600.812 701.875,597.602 699.707,594.652C693.875,586.73 691.949,578.418 691.906,561C691.852,537.734 695.969,526.039 706.359,519.945C709.562,518.07 710.523,517.891 717.188,517.926C721.211,517.949 724.5,517.809 724.5,517.617C724.5,517.426 723.523,515.203 722.328,512.676C721.133,510.148 718.055,503.363 715.484,497.602C712.914,491.84 710.477,486.703 710.062,486.188C709.031,484.891 703.352,485.121 697.5,486.695ZM542.25,503.27C538.332,504.031 531.996,505.242 528.172,505.961C524.344,506.676 520.922,507.625 520.562,508.07C520.195,508.523 520.18,513.641 520.523,519.75C520.863,525.73 521.512,537.883 521.965,546.75C522.418,555.617 523.117,569.117 523.516,576.75C523.918,584.383 524.625,599.738 525.09,610.875C525.711,625.754 526.211,631.574 526.988,632.816L528.043,634.512L579.207,634.316L630.375,634.125L630.375,598.875L594.258,598.68L558.145,598.484L557.715,590.805C557.477,586.582 556.742,571.145 556.078,556.5C554.027,511.219 553.648,504.418 553.109,503.062C552.48,501.473 551.387,501.496 542.25,503.27Z" style="fill-rule:nonzero;"/>
        </g>
    </g>
</svg>
